<svg width="760" height="300" xmlns="http://www.w3.org/2000/svg">
 <!-- Generator: Sketch 57 (83077) - https://sketch.com -->

 <title>Berns Logo</title>
 <desc>Created with Sketch.</desc>
 <g>
  <title>background</title>
  <rect x="-1" y="-1" width="762" height="302" id="canvas_background" fill="none"/>
 </g>
 <g>
  <title>Layer 1</title>
  <path d="m506.47406,211.81791c-0.54431,-0.50779 0.82014,-2.04204 1.91243,-2.80373c1.33503,-1.15703 2.73626,-2.37935 4.18162,-3.65245c-0.62342,0.38773 -1.20399,0.83874 -1.73223,1.34564c-5.40101,4.85285 -11.23837,9.2112 -17.43994,13.02118c-10.90455,6.64117 -18.80438,9.19825 -24.79913,9.19825c-3.81384,-0.25752 -6.53906,-2.29956 -6.25219,-5.87585c0.1964,-1.95456 0.74961,-3.85797 1.63292,-5.61834c8.12141,-2.06339 16.05278,-4.79571 23.71052,-8.16816c8.17566,-3.83381 16.9177,-8.9371 17.43994,-15.57826c-0.08154,-1.9411 -0.98028,-3.76069 -2.47978,-5.02059c-1.4995,-1.2599 -3.46387,-1.84593 -5.42005,-1.61695l-0.27583,0c-8.52743,0.76408 -16.79704,3.28615 -24.27322,7.40285c-4.90613,2.53895 -10.35657,6.12975 -13.07811,7.66037c-3.12135,2.13691 -6.12426,4.43736 -8.9958,6.89143c-1.10333,1.01558 -2.44939,2.29594 -1.90508,3.06125c0.54431,0.51505 2.17356,-0.51142 3.54168,-1.53425l2.18459,-2.04204l0.26848,0c-3.47534,3.98322 -5.7417,8.85197 -6.53906,14.04764c-0.27583,6.38365 4.90613,10.4641 14.99055,10.4641c11.44683,-0.71209 22.47602,-4.50844 31.88618,-10.97552c6.03757,-4.01516 11.77492,-8.45282 17.16778,-13.2787l0.54799,-0.52592c-1.00403,0.84873 -1.93083,1.62855 -2.73258,2.31407c-1.90508,1.5415 -2.9937,1.79902 -3.54168,1.28398zm-40.8783,2.81098c4.25112,-6.29631 9.18378,-12.11812 14.71104,-17.36279c3.3099,-3.30396 7.44985,-5.6821 11.99685,-6.89143c2.45307,0 3.81384,1.02283 3.26953,3.31877c-0.27216,3.57629 -4.3655,8.94073 -11.17304,13.2787c-5.88707,3.44476 -12.20994,6.10711 -18.80438,7.9179l0,-0.26115z" id="Path_11" fill="#101d2c" fill-rule="nonzero"/>
  <path d="m562.99233,211.59681c-0.41945,-0.39202 0.27839,-1.53143 1.11356,-2.3924c-2.75421,2.26417 -5.93901,4.71152 -10.19282,7.80736c-3.90119,2.91454 -8.04192,5.50276 -12.37912,7.73775c-2.20115,1.0295 -4.95165,1.80254 -6.05037,1.0295c-0.82775,-0.76938 -1.11356,-2.56459 0.27097,-4.89471c2.708,-4.33382 5.84104,-8.39442 9.35394,-12.12321c6.31019,-6.70459 12.65008,-12.12322 12.65008,-15.47551l0,-0.26012c0,-4.64192 -7.97682,-4.89472 -15.67898,-5.1585c-3.57454,-0.26013 -4.39857,-1.80621 -0.82032,-5.67875c1.43878,-1.34482 3.00354,-2.55192 4.67326,-3.60509c-1.00416,-1.73325 -2.93607,-2.73384 -4.95165,-2.5646c-3.96384,-0.09246 -7.77475,1.51043 -10.45266,4.39645c-1.32464,0.96722 -2.10606,2.49718 -2.10606,4.12351c0,1.62632 0.78142,3.15628 2.10606,4.1235c-1.92646,1.55341 -6.31019,5.67875 -9.907,9.03104c-2.90641,2.72946 -5.47132,5.03027 -7.8729,7.1479c0.70526,-0.414 1.38453,-0.59719 1.82995,-0.18319c0.67557,0.63749 -0.67927,2.13228 -1.64436,3.08118c2.76164,-2.33744 6.1246,-5.21346 9.35023,-8.23968c3.84922,-3.61242 8.24779,-7.48496 10.45265,-9.80042c2.03438,0.6527 4.19467,0.82955 6.3102,0.51658c6.8744,-0.26012 12.10073,-0.7767 11.00201,2.05901c-0.82775,1.80621 -11.2804,8.77092 -17.88013,14.70612c-6.05036,5.41497 -12.92847,12.63247 -13.20687,18.31855c-0.27096,3.86155 2.75422,6.70092 8.53733,6.70092c9.07926,0 18.70787,-6.19533 24.49841,-10.317c4.94387,-3.54249 9.70011,-7.33332 14.24991,-11.3575c-1.26947,0.9086 -2.49439,1.74759 -3.25532,1.27131z" id="Path_12" fill="#101d2c" fill-rule="nonzero"/>
  <path d="m514.59265,205.22782c-0.43053,-0.40368 -1.08537,-0.22506 -1.78363,0.17863c-1.42185,1.25393 -2.80028,2.45428 -4.11358,3.59746c-1.08538,0.75022 -2.41678,2.26137 -1.88132,2.76151c0.53545,0.50015 1.60997,0.25365 3.48406,-1.2575c0.79232,-0.6752 1.70404,-1.42898 2.68812,-2.27923c0.94427,-0.91812 2.25758,-2.37926 1.60635,-3.00087z" id="Path_13" fill="#101d2c" fill-rule="nonzero"/>
  <path d="m625.95774,207.09367c-4.64415,5.44711 -10.91615,12.45316 -11.46122,18.16563c-0.54507,3.88447 2.72904,6.7407 7.91089,6.7407l0.27622,0c9.0084,0 18.5545,-6.23211 24.3072,-10.37825c5.77885,-4.20573 11.33527,-8.7093 16.64675,-13.49246c0.8176,-0.77764 3.00157,-2.85624 2.4565,-3.37589c-0.81761,-0.77394 -2.18397,0.26167 -3.54664,1.29729c-3.28147,2.85991 -9.0084,7.78737 -13.37264,10.8979c-4.06951,3.14059 -8.46231,5.83765 -13.1038,8.04535c-2.18396,1.03562 -5.18185,1.81325 -6.54821,0.77395c-1.10487,-0.77395 -1.10487,-2.57982 1.10487,-5.7014c2.73259,-3.92823 5.7418,-7.65632 9.00472,-11.15589c4.36424,-5.18912 10.37107,-11.15588 10.91614,-15.84747c0.82129,-4.42255 -2.72535,-7.00237 -8.47069,-7.00237c-8.19079,0 -20.20076,7.26404 -29.75054,14.00474c-9.54978,6.74071 -16.91928,12.97282 -23.47486,18.16563l-0.81761,-0.26536c3.00526,-4.14614 7.64204,-9.85491 11.73375,-15.04404c2.72904,-3.63386 5.73429,-7.78369 5.73429,-10.8979c0.00584,-1.73977 -0.74279,-3.39652 -2.05203,-4.54123c-1.30925,-1.1447 -3.05034,-1.66477 -4.7724,-1.42553c-5.72693,0 -12.55136,3.89185 -19.10693,8.81931c-5.4152,4.22658 -10.6077,8.73134 -15.55661,13.49614c-0.28566,0.21038 -0.5519,0.44596 -0.79551,0.70393c1.1417,-0.94716 2.20975,-1.86853 3.25937,-2.78252c0.81761,-1.03562 2.72904,-2.3329 3.27411,-1.81694c0.82129,0.77764 -1.36636,2.85624 -2.18396,3.63387c-0.62978,0.59704 -1.39951,1.30465 -2.23553,2.05648l0.32041,-0.24324c4.0954,-3.63386 8.47069,-7.26772 12.55872,-10.63623c3.27881,-2.71818 6.84699,-5.06648 10.63993,-7.00237c1.36636,-0.77763 3.554,-1.29728 4.09907,-0.26167c0.81761,0.77763 0,2.57982 -1.63521,4.42255c-4.64414,5.45079 -6.82443,8.04536 -11.19604,13.49246c-4.52631,5.41543 -8.54532,11.23594 -12.00628,17.388c-2.18397,3.63018 -0.27254,4.14982 3.55032,4.14982c2.57568,0.15006 5.11185,-0.68669 7.09328,-2.34026c12.00629,-8.8193 18.55818,-14.78606 30.56815,-23.58694c6.67285,-5.06172 13.80032,-9.49341 21.2909,-13.23816c1.90774,-0.77763 5.72692,-2.3329 7.09328,-1.55527c1.36636,0.77764 0.81761,2.33658 -0.27622,3.63386c-3.56506,3.62281 -7.38423,8.0343 -11.47594,12.70378z" id="Path_15" fill="#101d2c" fill-rule="nonzero"/>
  <path d="m570.10104,205.1129c-0.55384,-0.49705 -2.49975,0.74912 -3.32677,1.75031c-1.05902,0.88048 -2.15173,1.77517 -3.31179,2.6805c-0.84573,0.83788 -1.55299,1.93848 -1.12265,2.32192c0.76714,0.46509 2.00579,-0.35504 3.27812,-1.26747c0.84947,-0.71007 1.63157,-1.42013 2.27148,-1.98109c0.82327,-0.75622 3.0461,-2.76925 2.21161,-3.50417z" id="Path_16" fill="#101d2c" fill-rule="nonzero"/>
  <path d="m570.10104,205.1129c-0.55384,-0.49705 -2.49975,0.74912 -3.32677,1.75031c-1.05902,0.88048 -2.15173,1.77517 -3.31179,2.6805c-0.84573,0.83788 -1.55299,1.93848 -1.12265,2.32192c0.76714,0.46509 2.00579,-0.35504 3.27812,-1.26747c0.84947,-0.71007 1.63157,-1.42013 2.27148,-1.98109c0.82327,-0.75622 3.0461,-2.76925 2.21161,-3.50417z" id="Path_17" fill="#101d2c" fill-rule="nonzero"/>
  <path d="m686.3727,160.14438c-1.34386,1.52738 -2.41895,2.03771 -1.8814,2.80502c0.26514,0.25697 1.61263,-0.51033 2.95649,-1.27402c7.92783,-4.35628 15.10577,-9.94759 21.26206,-16.56226c1.00326,-0.95199 1.66545,-2.20564 1.88504,-3.5687l0,-0.25698c0,-1.78435 -1.3475,-2.28744 -3.50131,-2.28744c-5.1103,0.50309 -9.68669,2.03771 -11.03418,4.8391c-0.80632,2.29107 0.53754,3.05476 -0.80632,5.34944c-2.3651,4.09353 -5.36188,7.79069 -8.88038,10.95584l0,0z" id="Path_18" fill="#101d2c" fill-rule="nonzero"/>
  <path d="m753.90366,204.99632c-0.81357,-0.77328 -2.45913,0.52288 -3.5488,1.5576c-5.67301,4.68153 -11.69198,8.92703 -18.0054,12.70016c-3.84494,2.3625 -7.8558,4.44352 -12.00115,6.22672l0,-0.26144c3.73487,-2.77624 6.73192,-6.42647 8.72844,-10.63072c3.27271,-7.26144 2.72787,-13.99264 2.45545,-21.25776c0,-2.85376 -0.2761,-4.92688 1.90693,-6.99632c2.09308,-1.44118 4.27971,-2.74144 6.54541,-3.89216c3.54881,-2.06944 7.64245,-5.4424 1.36578,-5.4424c-2.88127,0.04309 -5.66562,1.04747 -7.91119,2.85376c-1.72166,1.18221 -3.20222,2.68189 -4.36238,4.41873c-6.25827,5.18096 -11.18757,9.07312 -16.09479,12.4424c-4.36606,2.85376 -8.72844,5.70384 -11.45631,7.26144c-1.1044,1.03472 -1.63819,1.55392 -1.36577,2.32719c0.54484,0.52289 1.36577,0.26145 2.72787,-0.51183c3.63643,-1.76036 7.10719,-3.84433 10.37031,-6.22672c4.6348,-3.36928 10.36664,-7.26145 13.09082,-9.85008l0,0.26144c-3.00396,3.36928 -7.91118,18.9232 -12.82576,26.43871c-6.00057,9.85008 -12.82208,13.99264 -18.27782,13.99264c-4.9109,0 -8.18361,-2.33456 -7.91119,-6.4808c0.2761,-3.62336 4.09365,-6.47712 6.27668,-7.77696c2.81051,-1.23673 4.98302,-3.58311 6.00057,-6.4808c0.33064,-1.375 -0.01667,-2.82523 -0.93427,-3.90115c-0.91761,-1.07591 -2.29463,-1.64749 -3.70421,-1.53757c-6.54541,-0.51551 -13.36324,5.95792 -14.45659,13.21936c-1.09336,7.26145 1.90693,15.55024 16.3672,15.55024c7.85108,-0.21733 15.6049,-1.7959 22.9163,-4.66544c5.99956,-2.37593 11.75465,-5.3282 17.18446,-8.81536c5.13079,-3.41067 10.0484,-7.13179 14.72534,-11.14256c0.83198,-0.78432 2.73891,-2.85744 2.19407,-3.38032z" id="Path_19" fill="#101d2c" fill-rule="nonzero"/>
  <path d="m278.62921,284l-2.49126,4l0.44819,0c0.80753,-1.31734 1.61507,-2.65314 2.38223,-3.99631l-0.33916,-0.00369z" id="Path_30" fill="#101d2c" fill-rule="nonzero"/>
  <path d="m277.55316,288l449.22306,-0.39926c3.72285,-1.61922 1.60341,-2.62107 -1.34539,-3.20148l-439.61367,-0.39926c-0.53816,1.04251 -1.1058,2.07763 -1.6587,3.10536l-6.6053,0.89464z" id="Path_31" fill="#101d2c" fill-rule="nonzero"/>
  <path d="m276.03903,288.068l1.00942,-0.136l-0.93674,0c-0.02423,0.028 -0.04441,0.092 -0.07268,0.136z" id="Path_32" fill="#101d2c" fill-rule="nonzero"/>
  <path d="m288.79169,258.43972c-2.06933,8.99423 -5.30876,17.68457 -9.63714,25.85332l6.94848,0c4.23394,-8.01262 7.34465,-16.55939 9.2462,-25.40417c3.23587,-13.88974 1.89692,-28.44026 -3.82093,-41.52232c32.79873,-22.48289 65.04793,-52.30549 100.31772,-88.79226c50.31008,-51.38894 68.07591,-67.68237 85.84173,-80.07224c13.39168,10.56042 23.50459,30.05995 10.11292,52.08639c-13.13351,21.79274 -30.3498,32.34586 -51.40177,39.68557c-7.20816,-4.54941 -15.31501,-7.52122 -23.77752,-8.71636c-9.85843,-0.92021 -21.33595,0.2264 -22.43134,6.20771c-1.36461,5.96671 9.29415,8.25627 18.60673,8.72002c8.71211,0.63297 17.47073,-0.06535 25.96827,-2.07046c3.4158,3.66884 5.52575,8.3432 6.008,13.31008c0.82246,9.17646 -0.81877,22.48289 -12.56922,41.53327c-8.19652,12.34838 -18.79611,22.95589 -31.17963,31.20291c-9.67362,-3.30253 -19.82966,-5.00865 -30.06212,-5.05016c-31.71811,0 -46.73995,10.56042 -45.36427,17.44003c1.10645,6.42316 12.56922,7.80347 23.23536,7.80347c20.07822,-1.01515 39.72065,-6.17311 57.66794,-15.14318c13.14088,6.20771 21.60888,15.36957 21.60888,23.39944c0,0.91655 0,2.29685 0.82245,2.29685c1.10645,0 1.63754,-1.61035 1.63754,-2.5269c0.54585,-8.48997 -7.92215,-17.89283 -21.32489,-24.5497c16.9655,-8.72001 33.89411,-20.87983 42.91533,-36.93956c8.75199,-14.91678 10.93537,-31.89306 -1.3683,-47.26629c-1.86433,-2.66174 -4.1744,-4.98843 -6.83046,-6.87961c20.77167,-5.27656 47.28579,-16.74988 59.58578,-37.39966c15.0329,-25.4699 0.26923,-47.49634 -18.04244,-59.42976c41.47246,-25.71705 89.37119,-39.46369 138.30569,-39.69287c35.80088,0 91.28544,13.54012 88.82175,52.54649c-1.64122,29.1361 -37.44211,55.74895 -92.92298,55.74895c-21.04459,0 -50.83379,-7.79981 -54.66209,-26.38279c-3.8283,-16.74988 13.38799,-31.43661 30.88458,-35.33652c5.73507,-1.373 8.48275,-0.6865 8.48275,-1.373c0,-1.14295 -4.10123,-1.14295 -9.02122,-0.4601c-16.9655,2.98701 -40.72457,17.20633 -36.35042,37.85977c4.37414,21.10623 36.07749,28.2232 60.67378,28.2232c49.46918,0 98.94204,-22.9503 100.84882,-58.27951c2.7366,-43.59642 -60.6701,-55.06976 -96.47836,-55.06976c-50.6505,-0.01472 -100.38475,13.37256 -144.05552,38.77633c-12.29998,-6.20771 -35.25873,-11.93342 -59.58577,-12.38987c-74.90636,-1.8258 -141.86844,17.43638 -210.74099,57.5857c-12.56284,7.27062 -24.70026,15.23896 -36.35411,23.86685c-7.61108,-1.01447 -15.27923,-1.55232 -22.95874,-1.61036c-79.53499,0 -142.39216,39.00637 -142.39216,89.46415l0,0.23371c0,33.49976 27.60213,53.45939 64.50208,62.86226c-1.37252,15.0894 1.13591,30.27723 7.29148,44.14782c0.98355,0.19562 2.00336,-0.0669 2.76611,-0.71206c0.29509,-0.2512 0.56104,-0.53411 0.79296,-0.84353c-5.9304,-13.14011 -8.3437,-27.57071 -7.00749,-41.90208c17.05262,3.72047 34.46753,5.56838 51.92917,5.51026l0.27293,0c64.50208,0 114.24418,-16.51983 162.07582,-48.63929c4.60723,12.18514 5.36356,25.46923 2.16863,38.08982zm142.96382,-116.55535c-7.2192,1.85446 -14.67832,2.62744 -22.12891,2.2932c-6.02644,-0.45645 -17.23842,-2.06681 -16.14672,-6.20772c0.81877,-3.8999 10.94274,-5.05016 18.88333,-3.8999c7.08205,0.5658 13.83507,3.20033 19.40337,7.56976l-0.01107,0.24466zm-37.46793,90.62536c-14.32202,9.83565 -31.22381,15.3355 -48.64672,15.82967c-6.01537,0 -14.21414,-1.8258 -15.0329,-7.33971c-0.54585,-5.50661 10.11291,-12.85009 37.71872,-12.85009c8.82287,-0.01465 17.59036,1.37992 25.96459,4.13007l-0.00369,0.23006zm-222.19638,-113.34561c33.6175,4.58641 63.95255,18.58664 65.04793,42.21978c0.27881,6.04374 -1.03946,12.05496 -3.82461,17.44003c-19.05495,-1.76595 -38.26066,0.9879 -56.02672,8.03352c-19.41074,7.79251 -31.44149,19.03578 -37.44949,33.0214l-0.26186,0.24465c-17.44003,0.96002 -34.86166,-2.18469 -50.83748,-9.17646c16.11354,-30.75011 44.26889,-62.63951 83.35223,-91.78292zm59.85501,62.17941c-12.84952,22.02644 -48.92333,36.48312 -88.82913,38.31622l-0.27292,-0.2264c5.19291,-11.24692 17.4929,-22.71659 35.25504,-30.30826c17.07554,-6.77109 35.5291,-9.43786 53.84701,-7.78156zm-162.89459,78.23914c-35.52797,-9.17646 -61.76548,-28.44595 -61.76548,-59.88621l0,-0.22639c-0.00369,-47.51094 66.13963,-82.1354 138.56017,-82.1354c5.29537,-0.125 10.59329,0.09702 15.85905,0.66459c-36.62334,28.68331 -62.58793,60.34266 -77.34791,90.63267c-6.84736,-3.8127 -12.30445,-9.66808 -15.59351,-16.73163c-1.64123,-4.35635 -1.10644,-5.72935 -2.18707,-5.72935c-1.36831,0.45645 -0.82246,3.65159 -0.27292,5.96306c3.07139,8.23857 8.9746,15.14336 16.67413,19.50318c-7.42672,15.05694 -12.13971,31.28265 -13.92646,47.94548l0,0zm55.48086,6.42682l-0.27292,0c-17.37651,0.18558 -34.71427,-1.66277 -51.65256,-5.50661c1.85097,-16.28398 6.7633,-32.08123 14.48337,-46.57614c14.21413,7.56977 33.6175,11.01687 51.1104,11.23962c-1.29122,4.7149 -1.47792,9.65949 -0.54584,14.45668c0.27292,0.69015 1.10644,2.29685 1.91415,2.0668c1.10644,-0.23005 0.54584,-1.8258 0.27292,-2.74965c-0.61457,-4.6172 -0.23753,-9.31085 1.10645,-13.77383c42.63503,-0.6865 81.44914,-17.20268 94.5642,-43.36272c19.13045,4.36365 37.44212,13.76287 46.73626,29.5962c-45.67407,34.87641 -91.84973,54.6133 -157.71643,54.6133l0,-0.00365zm112.04236,-86.72911c2.46427,-5.71867 3.58535,-11.91655 3.27877,-18.12653c-0.81877,-24.10055 -25.96459,-41.29592 -60.40086,-47.95279l0,-0.2264c10.9086,-7.70036 22.22124,-14.82364 33.89042,-21.33993c67.78086,-39.68922 129.82294,-60.56906 202.54223,-58.73231c23.23535,0.45645 47.83164,6.64956 56.57624,11.68512c-27.3292,16.29343 -59.85501,42.44982 -98.13802,80.99609c-31.96153,32.58321 -59.84026,60.33536 -87.99192,82.38005c-10.11292,-15.37688 -28.69751,-24.55334 -49.75686,-28.6833z" id="Path_33" fill="#101d2c" fill-rule="nonzero"/>
  <path d="m276.54374,288l0.85193,0l6.58042,-0.89464c0.56917,-1.02773 1.10163,-2.06285 1.65244,-3.10536l-6.91825,0c-0.6977,1.34196 -1.41743,2.66913 -2.16654,4z" id="Path_34" fill="#101d2c" fill-rule="nonzero"/>
  <path d="m276.54374,288l0.85193,0l6.58042,-0.89464c0.56917,-1.02773 1.10163,-2.06285 1.65244,-3.10536l-6.91825,0c-0.6977,1.34196 -1.41743,2.66913 -2.16654,4z" id="Path_35" fill="#101d2c" fill-rule="nonzero"/>
 </g>
</svg>